<svg width="85" height="71" viewBox="0 0 85 71" fill="none" xmlns="http://www.w3.org/2000/svg">
<path d="M41.4 0.499995V50.6C41.4 56.8 39.5 61.7 35.7 65.3C31.9667 68.9 27.0333 70.7 20.9 70.7C14.7667 70.7 9.8 68.9 6 65.3C2.26667 61.7 0.4 56.8 0.4 50.6H11.9C11.9667 53.6667 12.7333 56.1 14.2 57.9C15.7333 59.7 17.9667 60.6 20.9 60.6C23.8333 60.6 26.0667 59.7 27.6 57.9C29.1333 56.0333 29.9 53.6 29.9 50.6V0.499995H41.4ZM82.8453 0.499995V9.79999H64.3453V70H52.9453V9.79999H34.3453V0.499995H82.8453Z" fill="white"/>
<path d="M76.9906 70.7C74.924 70.7 73.1906 70 71.7906 68.6C70.3906 67.2 69.6906 65.4667 69.6906 63.4C69.6906 61.3333 70.3906 59.6 71.7906 58.2C73.1906 56.8 74.924 56.1 76.9906 56.1C78.9906 56.1 80.6906 56.8 82.0906 58.2C83.4906 59.6 84.1906 61.3333 84.1906 63.4C84.1906 65.4667 83.4906 67.2 82.0906 68.6C80.6906 70 78.9906 70.7 76.9906 70.7Z" fill="#00FF66"/>
</svg>
