<svg width="50" height="52" viewBox="0 0 50 52" fill="none" xmlns="http://www.w3.org/2000/svg">
<path d="M47.819 8.91683L41.1627 2.2668C40.3502 1.4543 39.2627 0.998047 38.1127 0.998047C36.9627 0.998047 35.8752 1.44805 35.0626 2.2668L27.8939 9.42308C27.0814 10.2356 26.6251 11.3293 26.6251 12.4793C26.6251 13.6356 27.0751 14.7169 27.8939 15.5356L33.4939 21.1419C32.2182 24.1143 30.3852 26.815 28.0939 29.0982C25.8001 31.4044 23.1188 33.2232 20.1438 34.5107L14.5438 28.9044C13.7313 28.0919 12.6438 27.6357 11.4938 27.6357C10.9266 27.6336 10.3646 27.7447 9.84089 27.9626C9.31716 28.1804 8.84218 28.5006 8.44379 28.9044L1.26876 36.0607C0.456252 36.8732 0 37.967 0 39.117C0 40.2732 0.450002 41.3545 1.26876 42.1732L7.91878 48.8233C9.30629 50.2108 11.2188 51.0045 13.1813 51.0045C13.5876 51.0045 13.9813 50.9733 14.3813 50.9045C22.6563 49.542 30.8689 45.1357 37.5002 38.5107C44.1252 31.8732 48.5252 23.6606 49.9002 15.3794C50.294 13.0293 49.5065 10.6106 47.819 8.91683ZM45.4689 14.6356C44.2502 22.0044 40.2877 29.3544 34.3189 35.3232C28.3501 41.292 21.0063 45.2545 13.6376 46.4732C12.7126 46.6295 11.7626 46.317 11.0875 45.6482L4.55627 39.117L11.4813 32.1857L18.9688 39.6857L19.0251 39.742L20.3751 39.242C24.4684 37.737 28.1855 35.3599 31.2688 32.2756C34.3521 29.1912 36.7279 25.4732 38.2314 21.3794L38.7314 20.0294L31.1814 12.4856L38.1064 5.55432L44.6377 12.0856C45.3127 12.7606 45.6252 13.7106 45.4689 14.6356Z" fill="white"/>
</svg>
