<svg width="24" height="212" viewBox="0 0 24 212" fill="none" xmlns="http://www.w3.org/2000/svg">
<path d="M0.73 6.82727C0.73 5.56727 0.94 4.43727 1.36 3.43727C1.8 2.43727 2.4 1.64727 3.16 1.06727C3.94 0.487266 4.83 0.167266 5.83 0.107266V2.92727C5.01 3.00727 4.34 3.38727 3.82 4.06727C3.3 4.76727 3.04 5.67727 3.04 6.79727C3.04 7.83727 3.27 8.65727 3.73 9.25727C4.19 9.85727 4.77 10.1573 5.47 10.1573C6.19 10.1573 6.72 9.83727 7.06 9.19727C7.42 8.55727 7.77 7.56727 8.11 6.22727C8.43 5.00727 8.75 4.00727 9.07 3.22727C9.41 2.46727 9.9 1.80727 10.54 1.24727C11.2 0.707266 12.06 0.437266 13.12 0.437266C13.96 0.437266 14.73 0.687266 15.43 1.18727C16.13 1.68727 16.68 2.39727 17.08 3.31727C17.5 4.23727 17.71 5.28727 17.71 6.46727C17.71 8.28727 17.25 9.75727 16.33 10.8773C15.41 11.9973 14.15 12.5973 12.55 12.6773V9.94727C13.41 9.88727 14.1 9.53727 14.62 8.89727C15.14 8.27727 15.4 7.43727 15.4 6.37727C15.4 5.39727 15.19 4.61727 14.77 4.03727C14.35 3.45727 13.8 3.16727 13.12 3.16727C12.58 3.16727 12.13 3.33727 11.77 3.67727C11.43 4.03727 11.15 4.47727 10.93 4.99727C10.73 5.53727 10.5 6.27727 10.24 7.21727C9.92 8.39727 9.6 9.35727 9.28 10.0973C8.98 10.8373 8.52 11.4673 7.9 11.9873C7.28 12.5273 6.47 12.8073 5.47 12.8273C4.57 12.8273 3.76 12.5773 3.04 12.0773C2.32 11.5773 1.75 10.8673 1.33 9.94727C0.93 9.04727 0.73 8.00727 0.73 6.82727ZM9.25 20.1611C10.95 20.1611 12.43 20.5011 13.69 21.1811C14.97 21.8611 15.96 22.8011 16.66 24.0011C17.36 25.2211 17.71 26.6111 17.71 28.1711C17.71 30.1911 17.22 31.8511 16.24 33.1511C15.26 34.4711 13.9 35.3411 12.16 35.7611V32.8211C13.16 32.5411 13.95 31.9911 14.53 31.1711C15.11 30.3711 15.4 29.3711 15.4 28.1711C15.4 26.6111 14.86 25.3511 13.78 24.3911C12.72 23.4311 11.21 22.9511 9.25 22.9511C7.27 22.9511 5.74 23.4311 4.66 24.3911C3.58 25.3511 3.04 26.6111 3.04 28.1711C3.04 29.3711 3.32 30.3711 3.88 31.1711C4.44 31.9711 5.24 32.5211 6.28 32.8211V35.7611C4.6 35.3211 3.25 34.4411 2.23 33.1211C1.23 31.8011 0.73 30.1511 0.73 28.1711C0.73 26.6111 1.08 25.2211 1.78 24.0011C2.48 22.8011 3.47 21.8611 4.75 21.1811C6.03 20.5011 7.53 20.1611 9.25 20.1611ZM14.77 46.6338C15.71 47.1138 16.44 47.7938 16.96 48.6738C17.48 49.5738 17.74 50.6638 17.74 51.9438H14.92V51.2238C14.92 48.1638 13.26 46.6338 9.94 46.6338H1V43.9038H17.44V46.6338H14.77ZM0.73 66.7652C0.73 65.2252 1.08 63.8252 1.78 62.5652C2.48 61.3252 3.47 60.3452 4.75 59.6252C6.05 58.9252 7.55 58.5752 9.25 58.5752C10.93 58.5752 12.41 58.9352 13.69 59.6552C14.99 60.3952 15.98 61.3952 16.66 62.6552C17.36 63.9152 17.71 65.3252 17.71 66.8852C17.71 68.4452 17.36 69.8552 16.66 71.1152C15.98 72.3752 15 73.3652 13.72 74.0852C12.44 74.8252 10.95 75.1952 9.25 75.1952C7.55 75.1952 6.05 74.8152 4.75 74.0552C3.47 73.3152 2.48 72.3052 1.78 71.0252C1.08 69.7452 0.73 68.3252 0.73 66.7652ZM3.13 66.7652C3.13 67.7452 3.36 68.6652 3.82 69.5252C4.28 70.3852 4.97 71.0752 5.89 71.5952C6.81 72.1352 7.93 72.4052 9.25 72.4052C10.57 72.4052 11.69 72.1452 12.61 71.6252C13.53 71.1052 14.21 70.4252 14.65 69.5852C15.11 68.7452 15.34 67.8352 15.34 66.8552C15.34 65.8552 15.11 64.9352 14.65 64.0952C14.21 63.2752 13.53 62.6152 12.61 62.1152C11.69 61.6152 10.57 61.3652 9.25 61.3652C7.91 61.3652 6.78 61.6052 5.86 62.0852C4.94 62.5852 4.25 63.2452 3.79 64.0652C3.35 64.8852 3.13 65.7852 3.13 66.7652ZM23.2 86.0146H1V83.2846H23.2V86.0146ZM23.2 97.8974H1V95.1674H23.2V97.8974ZM9.28 118.528C10.96 118.528 12.43 118.868 13.69 119.548C14.97 120.228 15.96 121.158 16.66 122.338C17.36 123.538 17.71 124.878 17.71 126.358C17.71 127.638 17.41 128.828 16.81 129.928C16.23 131.028 15.46 131.868 14.5 132.448H23.2V135.208H1V132.448H4.09C3.11 131.908 2.3 131.108 1.66 130.048C1.04 128.988 0.73 127.748 0.73 126.328C0.73 124.868 1.09 123.538 1.81 122.338C2.53 121.158 3.54 120.228 4.84 119.548C6.14 118.868 7.62 118.528 9.28 118.528ZM9.25 132.448C10.49 132.448 11.57 132.198 12.49 131.698C13.41 131.198 14.11 130.518 14.59 129.658C15.09 128.818 15.34 127.888 15.34 126.868C15.34 125.848 15.1 124.918 14.62 124.078C14.14 123.238 13.44 122.568 12.52 122.068C11.6 121.568 10.52 121.318 9.28 121.318C8.02 121.318 6.92 121.568 5.98 122.068C5.06 122.568 4.35 123.238 3.85 124.078C3.37 124.918 3.13 125.848 3.13 126.868C3.13 127.888 3.37 128.818 3.85 129.658C4.35 130.518 5.06 131.198 5.98 131.698C6.92 132.198 8.01 132.448 9.25 132.448ZM0.73 151.492C0.73 149.952 1.08 148.552 1.78 147.292C2.48 146.052 3.47 145.072 4.75 144.352C6.05 143.652 7.55 143.302 9.25 143.302C10.93 143.302 12.41 143.662 13.69 144.382C14.99 145.122 15.98 146.122 16.66 147.382C17.36 148.642 17.71 150.052 17.71 151.612C17.71 153.172 17.36 154.582 16.66 155.842C15.98 157.102 15 158.092 13.72 158.812C12.44 159.552 10.95 159.922 9.25 159.922C7.55 159.922 6.05 159.542 4.75 158.782C3.47 158.042 2.48 157.032 1.78 155.752C1.08 154.472 0.73 153.052 0.73 151.492ZM3.13 151.492C3.13 152.472 3.36 153.392 3.82 154.252C4.28 155.112 4.97 155.802 5.89 156.322C6.81 156.862 7.93 157.132 9.25 157.132C10.57 157.132 11.69 156.872 12.61 156.352C13.53 155.832 14.21 155.152 14.65 154.312C15.11 153.472 15.34 152.562 15.34 151.582C15.34 150.582 15.11 149.662 14.65 148.822C14.21 148.002 13.53 147.342 12.61 146.842C11.69 146.342 10.57 146.092 9.25 146.092C7.91 146.092 6.78 146.332 5.86 146.812C4.94 147.312 4.25 147.972 3.79 148.792C3.35 149.612 3.13 150.512 3.13 151.492ZM17.44 189.911L1 184.781V181.961L14.05 178.001L1 174.041L1 171.221L17.44 166.061V168.851L3.64 172.631L17.44 176.711V179.501L3.61 183.491L17.44 187.211V189.911ZM17.74 205.131C17.74 207.131 17.13 208.751 15.91 209.991C14.71 211.231 12.97 211.851 10.69 211.851H1V209.151H10.3C11.94 209.151 13.19 208.741 14.05 207.921C14.93 207.101 15.37 205.981 15.37 204.561C15.37 203.121 14.92 201.971 14.02 201.111C13.12 200.271 11.81 199.851 10.09 199.851H1V197.121H17.44V199.851H15.1C15.94 200.391 16.59 201.121 17.05 202.041C17.51 202.981 17.74 204.011 17.74 205.131Z" fill="white"/>
</svg>
