<svg width="224" height="232" viewBox="0 0 224 232" fill="none" xmlns="http://www.w3.org/2000/svg">
<rect x="45.1053" y="1.9812" width="131.4" height="228.181" rx="18.5" stroke="black" stroke-width="3"/>
<ellipse cx="169.941" cy="28.6816" rx="1.49333" ry="1.54947" fill="#3D3D3D"/>
<ellipse cx="176.512" cy="28.6816" rx="1.49333" ry="1.54947" fill="#3D3D3D"/>
<ellipse cx="183.083" cy="28.6816" rx="1.49333" ry="1.54947" fill="#3D3D3D"/>
<ellipse cx="169.941" cy="36.7389" rx="1.49333" ry="1.54947" fill="#3D3D3D"/>
<ellipse cx="169.941" cy="44.7961" rx="1.49333" ry="1.54947" fill="#3D3D3D"/>
<ellipse cx="176.512" cy="36.7389" rx="1.49333" ry="1.54947" fill="#3D3D3D"/>
<ellipse cx="176.512" cy="44.7961" rx="1.49333" ry="1.54947" fill="#3D3D3D"/>
<ellipse cx="169.941" cy="52.8534" rx="1.49333" ry="1.54947" fill="#3D3D3D"/>
<ellipse cx="176.512" cy="52.8534" rx="1.49333" ry="1.54947" fill="#3D3D3D"/>
<ellipse cx="183.083" cy="52.8534" rx="1.49333" ry="1.54947" fill="#3D3D3D"/>
<ellipse cx="183.083" cy="36.7389" rx="1.49333" ry="1.54947" fill="#3D3D3D"/>
<ellipse cx="183.083" cy="44.7961" rx="1.49333" ry="1.54947" fill="#3D3D3D"/>
<ellipse cx="150.827" cy="28.6816" rx="1.49335" ry="1.54947" fill="#3D3D3D"/>
<ellipse cx="157.397" cy="28.6816" rx="1.49333" ry="1.54947" fill="#3D3D3D"/>
<ellipse cx="163.968" cy="28.6816" rx="1.49333" ry="1.54947" fill="#3D3D3D"/>
<ellipse cx="150.827" cy="36.7389" rx="1.49333" ry="1.54947" fill="#3D3D3D"/>
<ellipse cx="150.827" cy="44.7961" rx="1.49333" ry="1.54947" fill="#3D3D3D"/>
<ellipse cx="157.397" cy="36.7389" rx="1.49333" ry="1.54947" fill="#3D3D3D"/>
<ellipse cx="157.397" cy="44.7961" rx="1.49333" ry="1.54947" fill="#3D3D3D"/>
<ellipse cx="150.827" cy="52.8534" rx="1.49333" ry="1.54947" fill="#3D3D3D"/>
<ellipse cx="157.397" cy="52.8534" rx="1.49333" ry="1.54947" fill="#3D3D3D"/>
<ellipse cx="163.968" cy="52.8534" rx="1.49333" ry="1.54947" fill="#3D3D3D"/>
<ellipse cx="163.968" cy="36.7389" rx="1.49333" ry="1.54947" fill="#3D3D3D"/>
<ellipse cx="163.968" cy="44.7961" rx="1.49333" ry="1.54947" fill="#3D3D3D"/>
<line x1="43.6053" y1="198.553" x2="178.005" y2="198.553" stroke="black" stroke-width="3"/>
<path d="M120.953 214.619C120.953 220.518 116.358 225.204 110.805 225.204C105.252 225.204 100.657 220.518 100.657 214.619C100.657 208.72 105.252 204.033 110.805 204.033C116.358 204.033 120.953 208.72 120.953 214.619Z" fill="#AAAAAA" stroke="black" stroke-width="3"/>
<rect y="45.7258" width="89.0027" height="52.6821" rx="8" fill="#C9C9C9"/>
<rect x="6.18134" y="52.0645" width="76.64" height="40.005" rx="6" fill="#AAAAAA" stroke="black" stroke-width="4"/>
<line x1="48" y1="13" x2="175" y2="13" stroke="black" stroke-width="2"/>
<ellipse cx="96.768" cy="7.29898" rx="2.38934" ry="2.47915" fill="black"/>
<line x1="103.936" y1="6.91895" x2="126.635" y2="6.91895" stroke="black" stroke-width="2"/>
<line x1="13.1413" y1="60.9602" x2="44.2027" y2="60.9602" stroke="#00FF66" stroke-width="3"/>
<line x1="13.1413" y1="70.7571" x2="66.304" y2="70.7571" stroke="black" stroke-width="2"/>
<line x1="13.1413" y1="75.7153" x2="56.7467" y2="75.7153" stroke="black" stroke-width="2"/>
<line x1="13.1413" y1="80.6736" x2="69.888" y2="80.6736" stroke="black" stroke-width="2"/>
<rect x="115.285" y="94.0693" width="72.2773" height="76.8539" rx="8" fill="#C9C9C9"/>
<rect x="124.453" y="104.127" width="97.5467" height="57.9789" rx="6" fill="#AAAAAA" stroke="black" stroke-width="4"/>
<path d="M148.139 133.116C150.119 133.116 152.018 132.3 153.418 130.847C154.819 129.394 155.605 127.423 155.605 125.369C155.605 123.314 154.819 121.343 153.418 119.89C152.018 118.438 150.119 117.621 148.139 117.621C146.158 117.621 144.259 118.438 142.859 119.89C141.459 121.343 140.672 123.314 140.672 125.369C140.672 127.423 141.459 129.394 142.859 130.847C144.259 132.3 146.158 133.116 148.139 133.116ZM153.116 125.369C153.116 126.739 152.592 128.052 151.658 129.021C150.725 129.989 149.459 130.534 148.139 130.534C146.818 130.534 145.552 129.989 144.619 129.021C143.685 128.052 143.161 126.739 143.161 125.369C143.161 123.999 143.685 122.685 144.619 121.717C145.552 120.748 146.818 120.204 148.139 120.204C149.459 120.204 150.725 120.748 151.658 121.717C152.592 122.685 153.116 123.999 153.116 125.369ZM163.072 146.028C163.072 148.611 160.583 148.611 160.583 148.611H135.694C135.694 148.611 133.205 148.611 133.205 146.028C133.205 143.446 135.694 135.699 148.139 135.699C160.583 135.699 163.072 143.446 163.072 146.028ZM160.583 146.018C160.581 145.383 160.2 143.472 158.512 141.721C156.89 140.037 153.836 138.281 148.139 138.281C142.439 138.281 139.388 140.037 137.765 141.721C136.077 143.472 135.699 145.383 135.694 146.018H160.583Z" fill="black"/>
<line x1="177.408" y1="116.121" x2="211.456" y2="116.121" stroke="#0DFFF7" stroke-width="3"/>
<line x1="189.355" y1="128.397" x2="211.456" y2="128.397" stroke="black" stroke-width="2"/>
<line x1="182.187" y1="132.116" x2="211.456" y2="132.116" stroke="black" stroke-width="2"/>
<line x1="180.395" y1="135.835" x2="211.456" y2="135.835" stroke="black" stroke-width="2"/>
<line x1="187.563" y1="139.554" x2="211.456" y2="139.554" stroke="black" stroke-width="2"/>
<line x1="184.576" y1="143.272" x2="211.456" y2="143.272" stroke="black" stroke-width="2"/>
<ellipse cx="51.6693" cy="174.952" rx="1.49333" ry="1.54947" fill="#3D3D3D"/>
<ellipse cx="58.24" cy="174.952" rx="1.49333" ry="1.54947" fill="#3D3D3D"/>
<ellipse cx="64.8107" cy="174.952" rx="1.49333" ry="1.54947" fill="#3D3D3D"/>
<ellipse cx="51.6694" cy="183.009" rx="1.49333" ry="1.54947" fill="#3D3D3D"/>
<ellipse cx="51.6694" cy="191.067" rx="1.49333" ry="1.54947" fill="#3D3D3D"/>
<ellipse cx="58.24" cy="183.009" rx="1.49333" ry="1.54947" fill="#3D3D3D"/>
<ellipse cx="58.24" cy="191.067" rx="1.49333" ry="1.54947" fill="#3D3D3D"/>
<ellipse cx="64.8107" cy="183.009" rx="1.49333" ry="1.54947" fill="#3D3D3D"/>
<ellipse cx="64.8107" cy="191.067" rx="1.49333" ry="1.54947" fill="#3D3D3D"/>
<ellipse cx="70.1867" cy="174.952" rx="1.49333" ry="1.54947" fill="#3D3D3D"/>
<ellipse cx="76.7573" cy="174.952" rx="1.49333" ry="1.54947" fill="#3D3D3D"/>
<ellipse cx="83.328" cy="174.952" rx="1.49333" ry="1.54947" fill="#3D3D3D"/>
<ellipse cx="70.1867" cy="183.009" rx="1.49333" ry="1.54947" fill="#3D3D3D"/>
<ellipse cx="70.1867" cy="191.067" rx="1.49333" ry="1.54947" fill="#3D3D3D"/>
<ellipse cx="76.7573" cy="183.009" rx="1.49333" ry="1.54947" fill="#3D3D3D"/>
<ellipse cx="76.7573" cy="191.067" rx="1.49333" ry="1.54947" fill="#3D3D3D"/>
<ellipse cx="83.328" cy="183.009" rx="1.49333" ry="1.54947" fill="#3D3D3D"/>
<ellipse cx="83.328" cy="191.067" rx="1.49333" ry="1.54947" fill="#3D3D3D"/>
<ellipse cx="51.6693" cy="150.78" rx="1.49333" ry="1.54947" fill="#3D3D3D"/>
<ellipse cx="58.24" cy="150.78" rx="1.49333" ry="1.54947" fill="#3D3D3D"/>
<ellipse cx="64.8107" cy="150.78" rx="1.49333" ry="1.54947" fill="#3D3D3D"/>
<ellipse cx="51.6694" cy="158.838" rx="1.49333" ry="1.54947" fill="#3D3D3D"/>
<ellipse cx="51.6694" cy="166.895" rx="1.49333" ry="1.54947" fill="#3D3D3D"/>
<ellipse cx="58.24" cy="158.838" rx="1.49333" ry="1.54947" fill="#3D3D3D"/>
<ellipse cx="58.24" cy="166.895" rx="1.49333" ry="1.54947" fill="#3D3D3D"/>
<ellipse cx="64.8107" cy="158.838" rx="1.49333" ry="1.54947" fill="#3D3D3D"/>
<ellipse cx="64.8107" cy="166.895" rx="1.49333" ry="1.54947" fill="#3D3D3D"/>
</svg>
